# xmcd
#
# Track frame offsets: 
#        150
#        18840
#        38845
#        58922
#        82017
#        102875
#        125797
#        144777
#        165597
#        190725
#
# Disc length: 2824 seconds
#
# Revision: 31
# Processed by: cddbd v1.5.2PL0 Copyright (c) Steve Scherf et al.
# Submitted via: ExactAudioCopy v1.3
#
DISCID=7f0b060a
DTITLE=Mariah Carey - Emotions
DYEAR=1991
DGENRE=R&B/Pop
TTITLE0=Emotions
TTITLE1=And You Don't Remember
TTITLE2=Can't Let Go
TTITLE3=Make It Happen
TTITLE4=If It's Over
TTITLE5=You're So Cold
TTITLE6=So Blessed
TTITLE7=To Be Around You
TTITLE8=Till The End Of Time
TTITLE9=The Wind
EXTD=
EXTT0=
EXTT1=
EXTT2=
EXTT3=
EXTT4=
EXTT5=
EXTT6=
EXTT7=
EXTT8=
EXTT9=
PLAYORDER=
